<svg xmlns="http://www.w3.org/2000/svg" width="256" height="256" viewBox="0 0 100 100"><rect width="100" height="100" rx="20" fill="#7d6ee7"></rect><path fill="#fff" d="M65.89 50.36L38.16 54.23Q40.59 66.02 53.64 66.02L53.64 66.02Q57.42 66.02 60.48 64.76Q63.55 63.50 65.34 62.06L65.34 62.06Q67.50 63.32 67.50 65.48L67.50 65.48Q67.50 66.74 66.38 67.91Q65.25 69.08 63.32 69.98Q61.39 70.88 58.82 71.42Q56.25 71.96 53.28 71.96L53.28 71.96Q42.84 71.96 36.77 66.29Q30.70 60.62 30.70 49.73L30.70 49.73Q30.70 44.60 32.18 40.60Q33.66 36.59 36.32 33.80Q38.98 31.01 42.66 29.53Q46.36 28.04 50.67 28.04L50.67 28.04Q54.72 28.04 58.14 29.39Q61.56 30.74 64.04 33.22Q66.52 35.69 67.91 39.07Q69.30 42.44 69.30 46.49L69.30 46.49Q69.30 48.47 68.41 49.33Q67.50 50.18 65.89 50.36L65.89 50.36ZM50.59 33.89L50.59 33.89Q45.09 33.89 41.49 37.72Q37.89 41.54 37.72 48.65L37.72 48.65L62.47 45.23Q62.02 40.28 59 37.09Q55.98 33.89 50.59 33.89Z"></path></svg>